<svg width="20" height="20" viewBox="0 0 20 20" fill="none" xmlns="http://www.w3.org/2000/svg">
<path fill-rule="evenodd" clip-rule="evenodd" d="M10 0.335693C4.477 0.335693 0 4.81969 0 10.3527C0 14.7777 2.865 18.5327 6.839 19.8567C7.339 19.9487 7.521 19.6397 7.521 19.3737C7.521 19.1367 7.513 18.5057 7.508 17.6707C4.726 18.2757 4.139 16.3277 4.139 16.3277C3.685 15.1697 3.029 14.8617 3.029 14.8617C2.121 14.2417 3.098 14.2537 3.098 14.2537C4.101 14.3237 4.629 15.2857 4.629 15.2857C5.521 16.8157 6.97 16.3737 7.539 16.1177C7.631 15.4707 7.889 15.0297 8.175 14.7797C5.955 14.5267 3.62 13.6667 3.62 9.82869C3.62 8.73569 4.01 7.84069 4.649 7.14069C4.546 6.88769 4.203 5.86869 4.747 4.49069C4.747 4.49069 5.587 4.22069 7.497 5.51669C8.31277 5.29421 9.15444 5.18089 10 5.17969C10.85 5.18369 11.705 5.29469 12.504 5.51669C14.413 4.22069 15.251 4.48969 15.251 4.48969C15.797 5.86869 15.453 6.88769 15.351 7.14069C15.991 7.84069 16.379 8.73569 16.379 9.82869C16.379 13.6767 14.04 14.5237 11.813 14.7717C12.172 15.0807 12.491 15.6917 12.491 16.6267C12.491 17.9647 12.479 19.0457 12.479 19.3737C12.479 19.6417 12.659 19.9537 13.167 19.8557C15.1583 19.1878 16.8893 17.911 18.1155 16.2057C19.3416 14.5005 20.0009 12.453 20 10.3527C20 4.81969 15.522 0.335693 10 0.335693Z" fill="white"/>
</svg>
