<svg width="20" height="17" viewBox="0 0 20 17" fill="none" xmlns="http://www.w3.org/2000/svg">
<path d="M6.29 16.5891C13.837 16.5891 17.965 10.3361 17.965 4.91409C17.965 4.73609 17.965 4.55909 17.953 4.38409C18.7562 3.80262 19.4493 3.0827 20 2.25809C19.2511 2.5901 18.4566 2.80785 17.643 2.90409C18.4996 2.39115 19.1408 1.58444 19.447 0.634092C18.6417 1.11198 17.7607 1.44882 16.842 1.63009C16.2234 0.971857 15.405 0.535926 14.5136 0.389796C13.6222 0.243667 12.7075 0.395491 11.9111 0.82176C11.1147 1.24803 10.4811 1.92497 10.1083 2.74775C9.7355 3.57054 9.64437 4.49328 9.849 5.37309C8.21759 5.29133 6.6216 4.86742 5.16465 4.12886C3.70769 3.3903 2.42233 2.35362 1.392 1.08609C0.867318 1.98929 0.706589 3.05851 0.942536 4.07606C1.17848 5.0936 1.79337 5.98297 2.662 6.56309C2.00926 6.5442 1.37063 6.36859 0.8 6.05109V6.10309C0.800389 7.05039 1.1284 7.9684 1.7284 8.70145C2.3284 9.4345 3.16347 9.93748 4.092 10.1251C3.48781 10.2898 2.85389 10.3138 2.239 10.1951C2.50116 11.0106 3.01168 11.7237 3.69913 12.2347C4.38658 12.7457 5.21657 13.0291 6.073 13.0451C5.22212 13.7137 4.24779 14.2079 3.20573 14.4996C2.16367 14.7913 1.07432 14.8747 0 14.7451C1.8766 15.9494 4.06019 16.5882 6.29 16.5851" fill="white"/>
</svg>
